<svg width="106" height="80" fill="none" xmlns="http://www.w3.org/2000/svg"><mask id="path-1-outside-1_242_20" maskUnits="userSpaceOnUse" x=".653" y="1.317" width="105" height="78" fill="#000"><path fill="#fff" d="M.653 1.317h105v78h-105z"/><path fill-rule="evenodd" clip-rule="evenodd" d="M52.962 15.239c-2.33 0-4.62.107-6.857.314-2.737-4.92-7.899-8.236-13.815-8.236-4.475 0-8.518 1.898-11.407 4.952-8.481 7.83-13.864 18.735-14.206 30.849a18.29 18.29 0 0 0-.024.949c0 15.921 20.733 28.828 46.309 28.828 25.576 0 46.31-12.907 46.31-28.828 0-.318-.01-.635-.026-.95-.342-12.114-5.724-23.018-14.205-30.848-2.889-3.054-6.932-4.952-11.408-4.952-5.916 0-11.077 3.316-13.814 8.236a74.573 74.573 0 0 0-6.857-.314Z"/></mask><path fill-rule="evenodd" clip-rule="evenodd" d="M52.962 15.239c-2.33 0-4.62.107-6.857.314-2.737-4.92-7.899-8.236-13.815-8.236-4.475 0-8.518 1.898-11.407 4.952-8.481 7.83-13.864 18.735-14.206 30.849a18.29 18.29 0 0 0-.024.949c0 15.921 20.733 28.828 46.309 28.828 25.576 0 46.31-12.907 46.31-28.828 0-.318-.01-.635-.026-.95-.342-12.114-5.724-23.018-14.205-30.848-2.889-3.054-6.932-4.952-11.408-4.952-5.916 0-11.077 3.316-13.814 8.236a74.573 74.573 0 0 0-6.857-.314Z" fill="#498441"/><path d="m46.105 15.553-5.243 2.917 1.9 3.417 3.895-.36-.552-5.974Zm-25.222-3.284 4.07 4.408.15-.138.139-.147-4.36-4.123ZM6.677 43.118l5.992.311.004-.07.002-.072-5.998-.17Zm92.57-.002-5.998.17.002.071.004.071 5.992-.311ZM85.04 12.27l-4.359 4.123.14.147.149.138 4.07-4.408ZM59.82 15.553l-.552 5.974 3.894.36 1.901-3.417-5.243-2.917Zm-13.162 5.974a68.568 68.568 0 0 1 6.305-.288v-12c-2.514 0-4.988.116-7.41.34l1.105 11.948Zm-14.367-8.21c3.599 0 6.823 2.01 8.572 5.153l10.486-5.834C47.622 5.939 40.524 1.316 32.29 1.316v12Zm-7.048 3.075c1.82-1.925 4.314-3.075 7.048-3.075v-12c-6.216 0-11.809 2.645-15.766 6.829l8.718 8.246ZM12.675 43.287c.293-10.397 4.907-19.804 12.278-26.61l-8.14-8.817C7.222 16.716 1.07 29.118.68 42.948l11.995.339Zm-.023.78c0-.214.006-.426.017-.638L.685 42.806c-.022.419-.032.84-.032 1.26h12Zm40.31 22.828c-11.848 0-22.289-3.002-29.575-7.537-7.374-4.59-10.735-10.157-10.735-15.291h-12c0 10.787 7.007 19.635 16.393 25.478 9.475 5.898 22.189 9.35 35.917 9.35v-12Zm40.31-22.828c0 5.134-3.361 10.7-10.735 15.29-7.287 4.536-17.727 7.538-29.575 7.538v12c13.728 0 26.442-3.452 35.916-9.35 9.387-5.843 16.393-14.69 16.393-25.478h-12Zm-.017-.639c.01.212.016.425.016.639h12c0-.422-.011-.843-.033-1.262l-11.983.623ZM80.97 16.678c7.37 6.805 11.984 16.211 12.278 26.608l11.995-.34c-.391-13.829-6.542-26.23-16.133-35.086l-8.14 8.817Zm-7.338-3.361c2.735 0 5.229 1.15 7.05 3.075L89.4 8.146c-3.957-4.184-9.55-6.83-15.767-6.83v12Zm-8.57 5.153c1.748-3.143 4.972-5.153 8.57-5.153v-12c-8.234 0-15.331 4.622-19.057 11.319l10.486 5.834Zm-12.101 2.769c2.146 0 4.252.099 6.305.288l1.104-11.949a80.559 80.559 0 0 0-7.41-.339v12Z" fill="#191C19" mask="url('#path-1-outside-1_242_20')"/><path d="M52.962 75.895c13.258 0 25.404-3.34 34.331-8.897 8.883-5.53 14.978-13.557 14.978-22.931 0-2.207-.338-4.33-1.484-5.966-1.3-1.855-3.23-2.535-5.113-2.562-1.728-.024-3.576.484-5.331 1.118-1.802.65-3.804 1.55-5.9 2.524l-1.761.822c-8.278 3.873-18.537 8.674-29.72 8.674s-21.442-4.8-29.72-8.674c-.598-.28-1.185-.554-1.762-.822-2.095-.974-4.098-1.873-5.9-2.524-1.754-.634-3.603-1.142-5.33-1.117-1.884.026-3.814.706-5.113 2.561-1.146 1.635-1.484 3.76-1.484 5.966 0 9.374 6.094 17.401 14.978 22.931 8.927 5.557 21.073 8.897 34.33 8.897Z" fill="#9EE096" stroke="#191C19" stroke-width="6"/><circle cx="30.89" cy="23.785" r="11" fill="#F3FDF2"/><rect x="23.694" y="20.17" width="14.46" height="7.23" rx="3.615" fill="#121812"/><circle cx="75.034" cy="23.785" r="11" fill="#F3FDF2"/><rect x="67.838" y="20.17" width="14.46" height="7.23" rx="3.615" fill="#121812"/><path d="M41.113 47.096a3 3 0 0 0-3.822 2.885c0 7.174 6.536 13.672 15.742 13.672 9.228 0 15.65-6.464 15.65-13.672a3 3 0 0 0-3.826-2.884c-8.082 2.314-16.219 2.142-23.744-.001Z" fill="#F3B1B5" stroke="#1C191C" stroke-width="6" stroke-linejoin="round"/><path d="M52.962 50.033v4.684" stroke="#1C191C" stroke-width="6" stroke-linecap="round"/></svg>