<svg width="134" height="100" viewBox="0 0 134 100" fill="none" xmlns="http://www.w3.org/2000/svg">
<mask id="path-1-outside-1_223_4" maskUnits="userSpaceOnUse" x="0.0852051" y="0.502625" width="134" height="99" fill="black">
<rect fill="white" x="0.0852051" y="0.502625" width="134" height="99"/>
<path fill-rule="evenodd" clip-rule="evenodd" d="M66.9619 16.9167C63.8991 16.9167 60.8891 17.0575 57.9477 17.3293C54.3497 10.8621 47.5649 6.50262 39.7878 6.50262C33.9046 6.50262 28.5892 8.9974 24.7917 13.0122C13.6432 23.3056 6.56742 37.6408 6.11759 53.5649C6.09606 53.9793 6.08521 54.3953 6.08521 54.8129C6.08521 75.7424 33.3406 92.7091 66.9619 92.7091C100.583 92.7091 127.839 75.7424 127.839 54.8129C127.839 54.3948 127.828 53.9783 127.806 53.5634C127.356 37.6401 120.28 23.3056 109.132 13.0125C105.335 8.99752 100.019 6.50262 94.1359 6.50262C86.3588 6.50262 79.5741 10.8621 75.976 17.3293C73.0347 17.0575 70.0247 16.9167 66.9619 16.9167Z"/>
</mask>
<path fill-rule="evenodd" clip-rule="evenodd" d="M66.9619 16.9167C63.8991 16.9167 60.8891 17.0575 57.9477 17.3293C54.3497 10.8621 47.5649 6.50262 39.7878 6.50262C33.9046 6.50262 28.5892 8.9974 24.7917 13.0122C13.6432 23.3056 6.56742 37.6408 6.11759 53.5649C6.09606 53.9793 6.08521 54.3953 6.08521 54.8129C6.08521 75.7424 33.3406 92.7091 66.9619 92.7091C100.583 92.7091 127.839 75.7424 127.839 54.8129C127.839 54.3948 127.828 53.9783 127.806 53.5634C127.356 37.6401 120.28 23.3056 109.132 13.0125C105.335 8.99752 100.019 6.50262 94.1359 6.50262C86.3588 6.50262 79.5741 10.8621 75.976 17.3293C73.0347 17.0575 70.0247 16.9167 66.9619 16.9167Z" fill="#498441"/>
<path d="M57.9477 17.3293L52.7045 20.2463L54.6057 23.6637L58.4997 23.3039L57.9477 17.3293ZM24.7917 13.0122L28.8619 17.4205L29.0111 17.2828L29.1507 17.1352L24.7917 13.0122ZM6.11759 53.5649L12.1095 53.8763L12.1132 53.8054L12.1152 53.7343L6.11759 53.5649ZM127.806 53.5634L121.808 53.733L121.81 53.8041L121.814 53.8752L127.806 53.5634ZM109.132 13.0125L104.773 17.1355L104.913 17.283L105.062 17.4208L109.132 13.0125ZM75.976 17.3293L75.424 23.3039L79.318 23.6637L81.2192 20.2463L75.976 17.3293ZM58.4997 23.3039C61.257 23.0491 64.0827 22.9167 66.9619 22.9167V10.9167C63.7154 10.9167 60.5212 11.066 57.3957 11.3548L58.4997 23.3039ZM39.7878 12.5026C45.2469 12.5026 50.0952 15.5563 52.7045 20.2463L63.1909 14.4123C58.6041 6.16784 49.8829 0.502625 39.7878 0.502625V12.5026ZM29.1507 17.1352C31.8796 14.2502 35.6456 12.5026 39.7878 12.5026V0.502625C32.1636 0.502625 25.2989 3.74462 20.4328 8.88913L29.1507 17.1352ZM12.1152 53.7343C12.5165 39.5269 18.8233 26.6892 28.8619 17.4205L20.7215 8.60385C8.46301 19.9221 0.618304 35.7548 0.119987 53.3955L12.1152 53.7343ZM12.0852 54.8129C12.0852 54.4993 12.0934 54.1871 12.1095 53.8763L0.125683 53.2535C0.0987598 53.7714 0.0852051 54.2913 0.0852051 54.8129H12.0852ZM66.9619 86.7091C51.0914 86.7091 37.0089 82.6927 27.0864 76.5159C17.0763 70.2845 12.0852 62.4508 12.0852 54.8129H0.0852051C0.0852051 68.1046 8.72182 79.2189 20.7447 86.7033C32.8553 94.2422 49.211 98.7091 66.9619 98.7091V86.7091ZM121.839 54.8129C121.839 62.4508 116.847 70.2845 106.837 76.5159C96.9149 82.6927 82.8323 86.7091 66.9619 86.7091V98.7091C84.7127 98.7091 101.068 94.2422 113.179 86.7033C125.202 79.2189 133.839 68.1046 133.839 54.8129H121.839ZM121.814 53.8752C121.83 54.1864 121.839 54.4989 121.839 54.8129H133.839C133.839 54.2907 133.825 53.7702 133.798 53.2516L121.814 53.8752ZM105.062 17.4208C115.1 26.6891 121.407 39.5262 121.808 53.733L133.804 53.3938C133.305 35.7539 125.46 19.9221 113.203 8.6042L105.062 17.4208ZM94.1359 12.5026C98.2782 12.5026 102.044 14.2503 104.773 17.1355L113.491 8.88954C108.625 3.74479 101.76 0.502625 94.1359 0.502625V12.5026ZM81.2192 20.2463C83.8285 15.5563 88.6768 12.5026 94.1359 12.5026V0.502625C84.0409 0.502625 75.3196 6.16783 70.7329 14.4123L81.2192 20.2463ZM66.9619 22.9167C69.841 22.9167 72.6668 23.0491 75.424 23.3039L76.5281 11.3548C73.4026 11.066 70.2084 10.9167 66.9619 10.9167V22.9167Z" fill="#191C19" mask="url(#path-1-outside-1_223_4)"/>
<path d="M66.9619 95.7091C84.2426 95.7091 100.03 91.3548 111.594 84.1564C123.113 76.9853 130.839 66.6911 130.839 54.8129C130.839 51.9804 130.398 49.424 129.059 47.512C127.565 45.3803 125.349 44.5783 123.097 44.5467C121 44.5173 118.701 45.136 116.422 45.9592C114.097 46.7993 111.499 47.966 108.744 49.2455C107.98 49.6005 107.2 49.9657 106.405 50.3379C95.5499 55.4189 81.8819 61.8168 66.9619 61.8168C52.0418 61.8168 38.3738 55.4189 27.519 50.3379C26.7238 49.9657 25.9438 49.6005 25.1794 49.2455C22.4249 47.966 19.8266 46.7993 17.5014 45.9592C15.223 45.136 12.9233 44.5173 10.8271 44.5467C8.5748 44.5783 6.35911 45.3803 4.86521 47.512C3.52536 49.424 3.08521 51.9804 3.08521 54.8129C3.08521 66.6911 10.8104 76.9853 22.3301 84.1564C33.8937 91.3548 49.6811 95.7091 66.9619 95.7091Z" fill="#9EE096" stroke="#191C19" stroke-width="6"/>
<circle cx="39.2098" cy="27.5167" r="16" fill="#ECFFEA"/>
<circle cx="39.2098" cy="27.5167" r="16" stroke="#2E522A"/>
<ellipse cx="39.2093" cy="27.5167" rx="10.8335" ry="4.89254" fill="#191C19"/>
<circle cx="94.714" cy="27.5168" r="16" fill="#ECFFEA"/>
<circle cx="94.714" cy="27.5168" r="16" stroke="#2E522A"/>
<ellipse cx="94.7152" cy="27.5163" rx="10.9407" ry="4.94095" fill="#191C19"/>
</svg>
