<svg width="106" height="80" viewBox="0 0 106 80" fill="none" xmlns="http://www.w3.org/2000/svg">
<mask id="path-1-outside-1_242_20" maskUnits="userSpaceOnUse" x="0.652527" y="1.31689" width="105" height="78" fill="black">
<rect fill="white" x="0.652527" y="1.31689" width="105" height="78"/>
<path fill-rule="evenodd" clip-rule="evenodd" d="M52.9619 15.239C50.632 15.239 48.3422 15.3461 46.1047 15.5528C43.3676 10.6332 38.2064 7.31689 32.2903 7.31689C27.8149 7.31689 23.7715 9.21469 20.8827 12.2688C12.4019 20.0991 7.0193 31.004 6.67714 43.1176C6.66076 43.4328 6.65251 43.7493 6.65251 44.0669C6.65251 59.9882 27.3859 72.8949 52.9619 72.8949C78.5378 72.8949 99.2712 59.9882 99.2712 44.0669C99.2712 43.7489 99.2629 43.432 99.2465 43.1165C98.9041 31.0034 93.5216 20.0989 85.0411 12.2688C82.1523 9.2147 78.1088 7.31689 73.6334 7.31689C67.7173 7.31689 62.5561 10.6332 59.819 15.5528C57.5815 15.3461 55.2918 15.239 52.9619 15.239Z"/>
</mask>
<path fill-rule="evenodd" clip-rule="evenodd" d="M52.9619 15.239C50.632 15.239 48.3422 15.3461 46.1047 15.5528C43.3676 10.6332 38.2064 7.31689 32.2903 7.31689C27.8149 7.31689 23.7715 9.21469 20.8827 12.2688C12.4019 20.0991 7.0193 31.004 6.67714 43.1176C6.66076 43.4328 6.65251 43.7493 6.65251 44.0669C6.65251 59.9882 27.3859 72.8949 52.9619 72.8949C78.5378 72.8949 99.2712 59.9882 99.2712 44.0669C99.2712 43.7489 99.2629 43.432 99.2465 43.1165C98.9041 31.0034 93.5216 20.0989 85.0411 12.2688C82.1523 9.2147 78.1088 7.31689 73.6334 7.31689C67.7173 7.31689 62.5561 10.6332 59.819 15.5528C57.5815 15.3461 55.2918 15.239 52.9619 15.239Z" fill="#498441"/>
<path d="M46.1047 15.5529L40.8615 18.4699L42.7628 21.8872L46.6568 21.5274L46.1047 15.5529ZM20.8827 12.2688L24.9529 16.6771L25.1021 16.5394L25.2416 16.3918L20.8827 12.2688ZM6.67716 43.1176L12.6691 43.429L12.6728 43.3581L12.6748 43.287L6.67716 43.1176ZM99.2465 43.1165L93.2489 43.2861L93.251 43.3572L93.2547 43.4282L99.2465 43.1165ZM85.0411 12.2688L80.6821 16.3918L80.8217 16.5394L80.9709 16.6771L85.0411 12.2688ZM59.819 15.5528L59.267 21.5274L63.161 21.8872L65.0622 18.4699L59.819 15.5528ZM46.6568 21.5274C48.7101 21.3377 50.8157 21.239 52.9619 21.239V9.239C50.4483 9.239 47.9744 9.35455 45.5527 9.5783L46.6568 21.5274ZM32.2904 13.3169C35.8885 13.3169 39.1132 15.3274 40.8615 18.4699L51.3479 12.6358C47.6221 5.93893 40.5244 1.31689 32.2904 1.31689V13.3169ZM25.2416 16.3918C27.0619 14.4675 29.556 13.3169 32.2904 13.3169V1.31689C26.0739 1.31689 20.4811 3.96193 16.5237 8.14574L25.2416 16.3918ZM12.6748 43.287C12.9684 32.8901 17.582 23.4826 24.9529 16.6771L16.8125 7.86046C7.22173 16.7156 1.0702 29.118 0.679553 42.9482L12.6748 43.287ZM12.6525 44.0669C12.6525 43.8532 12.6581 43.6406 12.6691 43.429L0.685249 42.8062C0.663483 43.225 0.652527 43.6453 0.652527 44.0669H12.6525ZM52.9619 66.8949C41.1141 66.8949 30.6733 63.8934 23.3871 59.3577C16.0131 54.7673 12.6525 49.2006 12.6525 44.0669H0.652527C0.652527 54.8544 7.65864 63.7017 17.0454 69.545C26.5198 75.443 39.2337 78.8949 52.9619 78.8949V66.8949ZM93.2712 44.0669C93.2712 49.2006 89.9107 54.7673 82.5367 59.3577C75.2504 63.8934 64.8097 66.8949 52.9619 66.8949V78.8949C66.6901 78.8949 79.404 75.443 88.8784 69.545C98.2651 63.7017 105.271 54.8544 105.271 44.0669H93.2712ZM93.2547 43.4282C93.2657 43.6402 93.2712 43.853 93.2712 44.0669H105.271C105.271 43.6447 105.26 43.2239 105.238 42.8047L93.2547 43.4282ZM80.9709 16.6771C88.3415 23.4825 92.955 32.8895 93.2489 43.2861L105.244 42.9469C104.853 29.1172 98.7017 16.7153 89.1113 7.86049L80.9709 16.6771ZM73.6334 13.3169C76.3678 13.3169 78.8619 14.4675 80.6821 16.3918L89.4001 8.14579C85.4427 3.96194 79.8499 1.31689 73.6334 1.31689V13.3169ZM65.0622 18.4699C66.8105 15.3274 70.0353 13.3169 73.6334 13.3169V1.31689C65.3993 1.31689 58.3016 5.93893 54.5758 12.6358L65.0622 18.4699ZM52.9619 21.239C55.1081 21.239 57.2136 21.3377 59.267 21.5274L60.3711 9.5783C57.9494 9.35454 55.4755 9.239 52.9619 9.239V21.239Z" fill="#191C19" mask="url(#path-1-outside-1_242_20)"/>
<path d="M52.9619 75.8948C66.22 75.8948 78.3656 72.5555 87.293 66.9982C96.1765 61.4681 102.271 53.4409 102.271 44.0669C102.271 41.8604 101.933 39.7361 100.787 38.1011C99.4874 36.2462 97.5579 35.5659 95.6741 35.5395C93.9465 35.5152 92.0977 36.0226 90.3429 36.6566C88.5413 37.3076 86.5392 38.2073 84.4437 39.1806C83.867 39.4485 83.2796 39.7234 82.6818 40.0031C74.4042 43.8763 64.1447 48.6769 52.9619 48.6769C41.7791 48.6769 31.5196 43.8763 23.242 40.0031C22.6442 39.7234 22.0568 39.4485 21.48 39.1806C19.3846 38.2073 17.3825 37.3076 15.5809 36.6566C13.8261 36.0226 11.9773 35.5152 10.2497 35.5395C8.36592 35.5659 6.43643 36.2462 5.13657 38.1011C3.99077 39.7361 3.65253 41.8604 3.65253 44.0669C3.65253 53.4409 9.74726 61.4681 18.6308 66.9982C27.5582 72.5555 39.7038 75.8948 52.9619 75.8948Z" fill="#9EE096" stroke="#191C19" stroke-width="6"/>
<circle cx="30.8896" cy="23.7849" r="11" fill="#F3FDF2"/>
<rect x="23.694" y="20.1699" width="14.4602" height="7.23011" rx="3.61505" fill="#121812"/>
<circle cx="75.0341" cy="23.7849" r="11" fill="#F3FDF2"/>
<rect x="67.8384" y="20.1698" width="14.4602" height="7.23011" rx="3.61505" fill="#121812"/>
<path d="M41.1127 47.0959C40.2078 46.8383 39.2344 47.0201 38.4835 47.587C37.7326 48.154 37.2911 49.0404 37.2911 49.9813C37.2911 57.1548 43.8267 63.653 53.0332 63.653C62.2611 63.653 68.6826 57.1887 68.6826 49.9813C68.6826 49.0396 68.2404 48.1526 67.4884 47.5857C66.7365 47.0189 65.762 46.838 64.8567 47.0972C56.7745 49.4115 48.6384 49.2387 41.1127 47.0959Z" fill="#F3B1B5" stroke="#1C191C" stroke-width="6" stroke-linejoin="round"/>
<path d="M52.9619 50.0334L52.9619 54.7167" stroke="#1C191C" stroke-width="6" stroke-linecap="round"/>
</svg>
